<svg width="25" height="24" viewBox="0 0 25 24" fill="none" xmlns="http://www.w3.org/2000/svg">
<g clip-path="url(#clip0_126_1048)">
<path d="M12.1239 7.22198C11.2479 7.22198 9.89194 6.22598 8.46394 6.26198C6.57994 6.28598 4.85194 7.35397 3.87994 9.04597C1.92394 12.442 3.37594 17.458 5.28394 20.218C6.21994 21.562 7.32394 23.074 8.78794 23.026C10.1919 22.966 10.7199 22.114 12.4239 22.114C14.1159 22.114 14.5959 23.026 16.0839 22.99C17.5959 22.966 18.5559 21.622 19.4799 20.266C20.5479 18.706 20.9919 17.194 21.0159 17.11C20.9799 17.098 18.0759 15.982 18.0399 12.622C18.0159 9.81397 20.3319 8.46998 20.4399 8.40998C19.1199 6.47798 17.0919 6.26198 16.3839 6.21398C14.5359 6.06998 12.9879 7.22198 12.1239 7.22198ZM15.2439 4.38998C16.0239 3.45398 16.5399 2.14598 16.3959 0.849976C15.2799 0.897976 13.9359 1.59398 13.1319 2.52998C12.4119 3.35798 11.7879 4.68998 11.9559 5.96198C13.1919 6.05798 14.4639 5.32598 15.2439 4.38998Z" fill="white"/>
</g>
<defs>
<clipPath id="clip0_126_1048">
<rect width="24" height="24" fill="white" transform="translate(0.5)"/>
</clipPath>
</defs>
</svg>
