<svg width="25" height="24" viewBox="0 0 25 24" fill="none" xmlns="http://www.w3.org/2000/svg">
<path d="M12.6602 7.09333C14.1624 7.09333 15.1758 7.74222 15.7536 8.28444L18.0113 6.08C16.6247 4.79111 14.8202 4 12.6602 4C9.53133 4 6.82911 5.79556 5.51355 8.40889L8.10022 10.4178C8.74911 8.48889 10.5447 7.09333 12.6602 7.09333Z" fill="#EA4335"/>
<path d="M20.3399 12.1778C20.3399 11.52 20.2866 11.04 20.171 10.5422H12.6599V13.5111H17.0688C16.9799 14.2489 16.4999 15.36 15.4332 16.1067L17.9577 18.0622C19.4688 16.6667 20.3399 14.6133 20.3399 12.1778Z" fill="#4285F4"/>
<path d="M8.10892 13.5823C7.94003 13.0845 7.84226 12.5512 7.84226 12C7.84226 11.4489 7.94003 10.9156 8.10003 10.4178L5.51337 8.40894C4.97115 9.49338 4.66003 10.7112 4.66003 12C4.66003 13.2889 4.97115 14.5067 5.51337 15.5912L8.10892 13.5823Z" fill="#FBBC05"/>
<path d="M12.6602 20.0001C14.8202 20.0001 16.6336 19.2889 17.958 18.0623L15.4336 16.1067C14.758 16.5778 13.8513 16.9067 12.6602 16.9067C10.5447 16.9067 8.74913 15.5112 8.10913 13.5823L5.52246 15.5912C6.83802 18.2045 9.53135 20.0001 12.6602 20.0001Z" fill="#34A853"/>
</svg>
